<mxfile host="app.diagrams.net" modified="2024-01-26T11:15:20.785Z" agent="Mozilla/5.0 (Windows NT 10.0; Win64; x64) AppleWebKit/537.36 (KHTML, like Gecko) Chrome/120.0.0.0 Safari/537.36" etag="kRGm_acmCcWkyhsepNLj" version="23.0.2" type="device">
  <diagram name="PÃ¡gina-1" id="qA1NwfFJnBN_CZzWKkhz">
    <mxGraphModel dx="1254" dy="-254" grid="1" gridSize="10" guides="1" tooltips="1" connect="1" arrows="1" fold="1" page="1" pageScale="1" pageWidth="1169" pageHeight="827" math="0" shadow="0">
      <root>
        <mxCell id="0" />
        <mxCell id="1" parent="0" />
        <mxCell id="qcajc4mdGA_fiYhBdEPF-33" value="" style="group" vertex="1" connectable="0" parent="1">
          <mxGeometry x="17.99519178577046" y="1830" width="1146.2209963673258" height="594.8914939718534" as="geometry" />
        </mxCell>
        <mxCell id="qcajc4mdGA_fiYhBdEPF-29" value="" style="group;rotation=-60;" vertex="1" connectable="0" parent="qcajc4mdGA_fiYhBdEPF-33">
          <mxGeometry x="648.592338759416" y="149.99974835853573" width="481.54057703563694" height="321.63116073237353" as="geometry" />
        </mxCell>
        <mxCell id="qcajc4mdGA_fiYhBdEPF-59" value="" style="group" vertex="1" connectable="0" parent="qcajc4mdGA_fiYhBdEPF-29">
          <mxGeometry x="50.41246945481362" y="97.00025164146427" width="375.5056381260098" height="224.63090909090926" as="geometry" />
        </mxCell>
        <mxCell id="qcajc4mdGA_fiYhBdEPF-30" value="" style="endArrow=none;html=1;rounded=0;" edge="1" parent="qcajc4mdGA_fiYhBdEPF-59" target="qcajc4mdGA_fiYhBdEPF-15">
          <mxGeometry width="50" height="50" relative="1" as="geometry">
            <mxPoint x="178.40170364415587" y="65.57592756237909" as="sourcePoint" />
            <mxPoint x="-37.40999999999997" y="-37" as="targetPoint" />
            <Array as="points">
              <mxPoint x="82.59000000000003" y="23" />
            </Array>
          </mxGeometry>
        </mxCell>
        <mxCell id="qcajc4mdGA_fiYhBdEPF-18" value="" style="endArrow=none;html=1;rounded=0;entryX=1;entryY=1;entryDx=0;entryDy=0;entryPerimeter=0;" edge="1" parent="qcajc4mdGA_fiYhBdEPF-59" target="qcajc4mdGA_fiYhBdEPF-24">
          <mxGeometry width="50" height="50" relative="1" as="geometry">
            <mxPoint x="174.58753054518638" y="53.999748358535726" as="sourcePoint" />
            <mxPoint x="120.58753054518638" y="36.999748358535726" as="targetPoint" />
            <Array as="points">
              <mxPoint x="174.58753054518638" y="53.999748358535726" />
            </Array>
          </mxGeometry>
        </mxCell>
        <mxCell id="qcajc4mdGA_fiYhBdEPF-19" value="" style="endArrow=none;html=1;rounded=0;entryX=0;entryY=1;entryDx=0;entryDy=0;entryPerimeter=0;" edge="1" parent="qcajc4mdGA_fiYhBdEPF-59" target="qcajc4mdGA_fiYhBdEPF-27">
          <mxGeometry width="50" height="50" relative="1" as="geometry">
            <mxPoint x="179.58753054518638" y="51.999748358535726" as="sourcePoint" />
            <mxPoint x="201.58753054518638" y="-32.000251641464274" as="targetPoint" />
            <Array as="points" />
          </mxGeometry>
        </mxCell>
        <mxCell id="qcajc4mdGA_fiYhBdEPF-22" value="" style="endArrow=none;html=1;rounded=0;entryX=0.5;entryY=0;entryDx=0;entryDy=0;entryPerimeter=0;" edge="1" parent="qcajc4mdGA_fiYhBdEPF-59" target="qcajc4mdGA_fiYhBdEPF-23">
          <mxGeometry width="50" height="50" relative="1" as="geometry">
            <mxPoint x="179.58753054518638" y="57.999748358535726" as="sourcePoint" />
            <mxPoint x="213.58753054518638" y="117.99974835853573" as="targetPoint" />
            <Array as="points" />
          </mxGeometry>
        </mxCell>
        <mxCell id="qcajc4mdGA_fiYhBdEPF-23" value="" style="shape=mxgraph.signs.tech.computer;html=1;pointerEvents=1;fillColor=#000000;strokeColor=none;verticalLabelPosition=bottom;verticalAlign=top;align=center;rotation=-30;" vertex="1" parent="qcajc4mdGA_fiYhBdEPF-59">
          <mxGeometry x="210.58753054518638" y="132.99974835853573" width="43.29563812600969" height="34.090909090909086" as="geometry" />
        </mxCell>
        <mxCell id="qcajc4mdGA_fiYhBdEPF-24" value="" style="shape=mxgraph.signs.tech.computer;html=1;pointerEvents=1;fillColor=#000000;strokeColor=none;verticalLabelPosition=bottom;verticalAlign=top;align=center;rotation=-30;" vertex="1" parent="qcajc4mdGA_fiYhBdEPF-59">
          <mxGeometry x="71.58753054518638" y="181.99974835853573" width="43.29563812600969" height="34.090909090909086" as="geometry" />
        </mxCell>
        <mxCell id="qcajc4mdGA_fiYhBdEPF-27" value="" style="shape=mxgraph.signs.tech.computer;html=1;pointerEvents=1;fillColor=#000000;strokeColor=none;verticalLabelPosition=bottom;verticalAlign=top;align=center;rotation=-30;" vertex="1" parent="qcajc4mdGA_fiYhBdEPF-59">
          <mxGeometry x="326.5875305451864" y="34.999748358535726" width="43.29563812600969" height="34.090909090909086" as="geometry" />
        </mxCell>
        <mxCell id="qcajc4mdGA_fiYhBdEPF-28" value="" style="image;html=1;image=img/lib/clip_art/networking/Switch_128x128.png;rotation=-30;" vertex="1" parent="qcajc4mdGA_fiYhBdEPF-59">
          <mxGeometry x="144.58753054518638" y="31.999748358535726" width="69.2730210016155" height="54.54545454545454" as="geometry" />
        </mxCell>
        <mxCell id="qcajc4mdGA_fiYhBdEPF-55" value="200.0.0.130/25" style="text;html=1;strokeColor=none;fillColor=none;align=center;verticalAlign=middle;whiteSpace=wrap;rounded=0;" vertex="1" parent="qcajc4mdGA_fiYhBdEPF-59">
          <mxGeometry x="266.59000000000003" width="60" height="30" as="geometry" />
        </mxCell>
        <mxCell id="qcajc4mdGA_fiYhBdEPF-56" value="200.0.0.132/25" style="text;html=1;strokeColor=none;fillColor=none;align=center;verticalAlign=middle;whiteSpace=wrap;rounded=0;" vertex="1" parent="qcajc4mdGA_fiYhBdEPF-59">
          <mxGeometry x="202.24" y="182" width="60" height="30" as="geometry" />
        </mxCell>
        <mxCell id="qcajc4mdGA_fiYhBdEPF-57" value="200.0.0.131/25" style="text;html=1;strokeColor=none;fillColor=none;align=center;verticalAlign=middle;whiteSpace=wrap;rounded=0;" vertex="1" parent="qcajc4mdGA_fiYhBdEPF-59">
          <mxGeometry y="163" width="60" height="30" as="geometry" />
        </mxCell>
        <mxCell id="qcajc4mdGA_fiYhBdEPF-32" value="" style="group" vertex="1" connectable="0" parent="qcajc4mdGA_fiYhBdEPF-33">
          <mxGeometry x="281.59731187543434" width="349.9974963387952" height="312.3234862231293" as="geometry" />
        </mxCell>
        <mxCell id="qcajc4mdGA_fiYhBdEPF-43" value="" style="endArrow=none;html=1;rounded=0;" edge="1" parent="qcajc4mdGA_fiYhBdEPF-32">
          <mxGeometry width="50" height="50" relative="1" as="geometry">
            <mxPoint x="7.407496338795227" y="310" as="sourcePoint" />
            <mxPoint x="307.4074963387952" y="200" as="targetPoint" />
          </mxGeometry>
        </mxCell>
        <mxCell id="qcajc4mdGA_fiYhBdEPF-15" value="" style="image;html=1;image=img/lib/clip_art/networking/Wireless_Router_128x128.png;fontSize=16;" vertex="1" parent="qcajc4mdGA_fiYhBdEPF-32">
          <mxGeometry x="269.9974963387952" y="150" width="80" height="80" as="geometry" />
        </mxCell>
        <mxCell id="qcajc4mdGA_fiYhBdEPF-1" value="" style="endArrow=none;html=1;rounded=0;entryX=0.5;entryY=0;entryDx=0;entryDy=0;entryPerimeter=0;" edge="1" parent="qcajc4mdGA_fiYhBdEPF-32" source="qcajc4mdGA_fiYhBdEPF-16">
          <mxGeometry width="50" height="50" relative="1" as="geometry">
            <mxPoint x="305.9974963387952" y="-20" as="sourcePoint" />
            <mxPoint x="306.28749633879517" y="200" as="targetPoint" />
            <Array as="points" />
          </mxGeometry>
        </mxCell>
        <mxCell id="qcajc4mdGA_fiYhBdEPF-16" value="" style="image;aspect=fixed;perimeter=ellipsePerimeter;html=1;align=center;shadow=0;dashed=0;spacingTop=3;image=img/lib/active_directory/internet_cloud.svg;fontSize=16;" vertex="1" parent="qcajc4mdGA_fiYhBdEPF-32">
          <mxGeometry x="263.9974963387952" width="86" height="54.18" as="geometry" />
        </mxCell>
        <mxCell id="qcajc4mdGA_fiYhBdEPF-44" value="puerta de enlace&lt;br&gt;200.0.0.1&lt;br&gt;red&lt;br&gt;200.0.0.0/25" style="text;html=1;strokeColor=none;fillColor=none;align=center;verticalAlign=middle;whiteSpace=wrap;rounded=0;" vertex="1" parent="qcajc4mdGA_fiYhBdEPF-32">
          <mxGeometry x="164" y="170" width="100" height="30" as="geometry" />
        </mxCell>
        <mxCell id="qcajc4mdGA_fiYhBdEPF-17" value="" style="group;rotation=30;" vertex="1" connectable="0" parent="qcajc4mdGA_fiYhBdEPF-33">
          <mxGeometry x="1.5948082142295448" y="280" width="536" height="204.09000000000015" as="geometry" />
        </mxCell>
        <mxCell id="qcajc4mdGA_fiYhBdEPF-34" value="" style="endArrow=none;html=1;rounded=0;entryX=0.5;entryY=0;entryDx=0;entryDy=0;entryPerimeter=0;" edge="1" parent="qcajc4mdGA_fiYhBdEPF-17" target="qcajc4mdGA_fiYhBdEPF-35">
          <mxGeometry width="50" height="50" relative="1" as="geometry">
            <mxPoint x="294.5010320657603" y="9.995921671486919" as="sourcePoint" />
            <mxPoint x="267.41289306654255" y="116.77445067257756" as="targetPoint" />
            <Array as="points" />
          </mxGeometry>
        </mxCell>
        <mxCell id="qcajc4mdGA_fiYhBdEPF-3" value="" style="endArrow=none;html=1;rounded=0;entryX=1;entryY=1;entryDx=0;entryDy=0;entryPerimeter=0;" edge="1" parent="qcajc4mdGA_fiYhBdEPF-17" target="qcajc4mdGA_fiYhBdEPF-9">
          <mxGeometry width="50" height="50" relative="1" as="geometry">
            <mxPoint x="290" y="25" as="sourcePoint" />
            <mxPoint x="278" y="-30" as="targetPoint" />
            <Array as="points">
              <mxPoint x="290" y="25" />
            </Array>
          </mxGeometry>
        </mxCell>
        <mxCell id="qcajc4mdGA_fiYhBdEPF-4" value="" style="endArrow=none;html=1;rounded=0;entryX=0;entryY=1;entryDx=0;entryDy=0;entryPerimeter=0;" edge="1" parent="qcajc4mdGA_fiYhBdEPF-17" target="qcajc4mdGA_fiYhBdEPF-12">
          <mxGeometry width="50" height="50" relative="1" as="geometry">
            <mxPoint x="294" y="29" as="sourcePoint" />
            <mxPoint x="378" y="5" as="targetPoint" />
            <Array as="points" />
          </mxGeometry>
        </mxCell>
        <mxCell id="qcajc4mdGA_fiYhBdEPF-5" value="" style="endArrow=none;html=1;rounded=0;entryX=0;entryY=0.5;entryDx=0;entryDy=0;entryPerimeter=0;" edge="1" parent="qcajc4mdGA_fiYhBdEPF-17" target="qcajc4mdGA_fiYhBdEPF-11">
          <mxGeometry width="50" height="50" relative="1" as="geometry">
            <mxPoint x="291" y="34" as="sourcePoint" />
            <mxPoint x="366" y="95" as="targetPoint" />
            <Array as="points" />
          </mxGeometry>
        </mxCell>
        <mxCell id="qcajc4mdGA_fiYhBdEPF-6" value="" style="endArrow=none;html=1;rounded=0;exitX=0.995;exitY=0.5;exitDx=0;exitDy=0;exitPerimeter=0;" edge="1" parent="qcajc4mdGA_fiYhBdEPF-17">
          <mxGeometry width="50" height="50" relative="1" as="geometry">
            <mxPoint x="98" y="-78" as="sourcePoint" />
            <mxPoint x="284" y="30" as="targetPoint" />
            <Array as="points" />
          </mxGeometry>
        </mxCell>
        <mxCell id="qcajc4mdGA_fiYhBdEPF-7" value="" style="endArrow=none;html=1;rounded=0;entryX=0.5;entryY=0;entryDx=0;entryDy=0;entryPerimeter=0;exitX=0.5;exitY=0;exitDx=0;exitDy=0;" edge="1" parent="qcajc4mdGA_fiYhBdEPF-17" target="qcajc4mdGA_fiYhBdEPF-8" source="qcajc4mdGA_fiYhBdEPF-13">
          <mxGeometry width="50" height="50" relative="1" as="geometry">
            <mxPoint x="253" y="11" as="sourcePoint" />
            <mxPoint x="218" y="70" as="targetPoint" />
            <Array as="points" />
          </mxGeometry>
        </mxCell>
        <mxCell id="qcajc4mdGA_fiYhBdEPF-8" value="" style="shape=mxgraph.signs.tech.computer;html=1;pointerEvents=1;fillColor=#000000;strokeColor=none;verticalLabelPosition=bottom;verticalAlign=top;align=center;rotation=30;" vertex="1" parent="qcajc4mdGA_fiYhBdEPF-17">
          <mxGeometry x="174.27" y="84" width="47.3" height="34.09" as="geometry" />
        </mxCell>
        <mxCell id="qcajc4mdGA_fiYhBdEPF-9" value="" style="shape=mxgraph.signs.tech.computer;html=1;pointerEvents=1;fillColor=#000000;strokeColor=none;verticalLabelPosition=bottom;verticalAlign=top;align=center;rotation=30;" vertex="1" parent="qcajc4mdGA_fiYhBdEPF-17">
          <mxGeometry x="102" y="10" width="43.29563812600969" height="34.090909090909086" as="geometry" />
        </mxCell>
        <mxCell id="qcajc4mdGA_fiYhBdEPF-10" value="" style="shape=mxgraph.signs.tech.computer;html=1;pointerEvents=1;fillColor=#000000;strokeColor=none;verticalLabelPosition=bottom;verticalAlign=top;align=center;rotation=30;" vertex="1" parent="qcajc4mdGA_fiYhBdEPF-17">
          <mxGeometry x="57" y="-107" width="43.29563812600969" height="34.090909090909086" as="geometry" />
        </mxCell>
        <mxCell id="qcajc4mdGA_fiYhBdEPF-11" value="" style="shape=mxgraph.signs.tech.computer;html=1;pointerEvents=1;fillColor=#000000;strokeColor=none;verticalLabelPosition=bottom;verticalAlign=top;align=center;rotation=30;" vertex="1" parent="qcajc4mdGA_fiYhBdEPF-17">
          <mxGeometry x="484" y="140" width="43.29563812600969" height="34.090909090909086" as="geometry" />
        </mxCell>
        <mxCell id="qcajc4mdGA_fiYhBdEPF-12" value="" style="shape=mxgraph.signs.tech.computer;html=1;pointerEvents=1;fillColor=#000000;strokeColor=none;verticalLabelPosition=bottom;verticalAlign=top;align=center;rotation=30;" vertex="1" parent="qcajc4mdGA_fiYhBdEPF-17">
          <mxGeometry x="357" y="157" width="43.29563812600969" height="34.090909090909086" as="geometry" />
        </mxCell>
        <mxCell id="qcajc4mdGA_fiYhBdEPF-35" value="" style="shape=mxgraph.signs.tech.computer;html=1;pointerEvents=1;fillColor=#000000;strokeColor=none;verticalLabelPosition=bottom;verticalAlign=top;align=center;rotation=30;" vertex="1" parent="qcajc4mdGA_fiYhBdEPF-17">
          <mxGeometry x="230.5" y="118.09000000000015" width="43.29563812600969" height="34.090909090909086" as="geometry" />
        </mxCell>
        <mxCell id="qcajc4mdGA_fiYhBdEPF-13" value="" style="image;html=1;image=img/lib/clip_art/networking/Switch_128x128.png;rotation=30;" vertex="1" parent="qcajc4mdGA_fiYhBdEPF-17">
          <mxGeometry x="253.15" y="-0.22999999999999998" width="67" height="54.55" as="geometry" />
        </mxCell>
        <mxCell id="qcajc4mdGA_fiYhBdEPF-50" value="200.0.0.3/25" style="text;html=1;strokeColor=none;fillColor=none;align=center;verticalAlign=middle;whiteSpace=wrap;rounded=0;" vertex="1" parent="qcajc4mdGA_fiYhBdEPF-17">
          <mxGeometry x="37.41" y="-0.2300000000000182" width="60" height="30" as="geometry" />
        </mxCell>
        <mxCell id="qcajc4mdGA_fiYhBdEPF-53" value="200.0.0.6/25" style="text;html=1;strokeColor=none;fillColor=none;align=center;verticalAlign=middle;whiteSpace=wrap;rounded=0;" vertex="1" parent="qcajc4mdGA_fiYhBdEPF-17">
          <mxGeometry x="287.40999999999997" y="174.09000000000015" width="60" height="30" as="geometry" />
        </mxCell>
        <mxCell id="qcajc4mdGA_fiYhBdEPF-45" value="&lt;span style=&quot;color: rgb(0, 0, 0); font-family: Helvetica; font-size: 12px; font-style: normal; font-variant-ligatures: normal; font-variant-caps: normal; font-weight: 400; letter-spacing: normal; orphans: 2; text-align: center; text-indent: 0px; text-transform: none; widows: 2; word-spacing: 0px; -webkit-text-stroke-width: 0px; background-color: rgb(251, 251, 251); text-decoration-thickness: initial; text-decoration-style: initial; text-decoration-color: initial; float: none; display: inline !important;&quot;&gt;puerta de enlace&lt;br&gt;200.0.0.129&lt;br&gt;red&lt;br&gt;200.0.0.128/25&lt;br&gt;&lt;/span&gt;" style="text;html=1;strokeColor=none;fillColor=none;align=center;verticalAlign=middle;whiteSpace=wrap;rounded=0;" vertex="1" parent="qcajc4mdGA_fiYhBdEPF-33">
          <mxGeometry x="637.0048082142296" y="160" width="100" height="40" as="geometry" />
        </mxCell>
        <mxCell id="qcajc4mdGA_fiYhBdEPF-49" value="200.0.0.2/25" style="text;html=1;strokeColor=none;fillColor=none;align=center;verticalAlign=middle;whiteSpace=wrap;rounded=0;" vertex="1" parent="qcajc4mdGA_fiYhBdEPF-33">
          <mxGeometry x="129.00480821422954" y="175" width="60" height="30" as="geometry" />
        </mxCell>
        <mxCell id="qcajc4mdGA_fiYhBdEPF-51" value="200.0.0.4/25" style="text;html=1;strokeColor=none;fillColor=none;align=center;verticalAlign=middle;whiteSpace=wrap;rounded=0;" vertex="1" parent="qcajc4mdGA_fiYhBdEPF-33">
          <mxGeometry x="109.00480821422954" y="380" width="60" height="30" as="geometry" />
        </mxCell>
        <mxCell id="qcajc4mdGA_fiYhBdEPF-52" value="200.0.0.5/25" style="text;html=1;strokeColor=none;fillColor=none;align=center;verticalAlign=middle;whiteSpace=wrap;rounded=0;" vertex="1" parent="qcajc4mdGA_fiYhBdEPF-33">
          <mxGeometry x="169.00480821422954" y="420" width="60" height="30" as="geometry" />
        </mxCell>
        <mxCell id="qcajc4mdGA_fiYhBdEPF-54" value="200.0.0.7/25" style="text;html=1;strokeColor=none;fillColor=none;align=center;verticalAlign=middle;whiteSpace=wrap;rounded=0;" vertex="1" parent="qcajc4mdGA_fiYhBdEPF-33">
          <mxGeometry x="469.00480821422957" y="380" width="60" height="30" as="geometry" />
        </mxCell>
      </root>
    </mxGraphModel>
  </diagram>
</mxfile>
